#N canvas 104 105 1390 745 12;
#N canvas 0 50 450 250 (subpatch) 0;
#X text 0 0 plugdatainfo <?xml version="1.0" encoding="UTF-8"?> <plugdatainfo><InfoObj ID="16.O.....A.........B....." Updated="0" Segmented="1" Path="48......D..........O....7D...vC....OA...Pz+++u4++++D8+++a9+++uT++++"/></plugdatainfo>;
#X coords 0 1 100 -1 1 1 1;
#X restore 0 0 graph;
#X obj 160 186 file glob;
#X obj 345 316 text define -k content;
#A set;
#X obj 160 316 text insert content, f 24;
#X msg 233 186 1e+09;
#X obj 568 155 text get content;
#X msg 345 188 clear, f 7;
#X obj 29 186 text size content;
#X obj 146 134 t b s b;
#X obj 500 198 pdcontrol;
#X msg 500 156 dir, f 5;
#X obj 80 316 print files;
#X msg 160 219 \$2 \$1;
#X obj 160 254 route 0, f 11;
#X obj 160 280 list;
#X obj 500 110 t b f, f 13;
#X obj 500 249 sprintf %s/%s;
#X msg 146 99 symbol \$1/*;
#X obj 146 70 inlet;
#X obj 500 70 inlet;
#X obj 500 316 outlet;
#X obj 29 316 outlet;
#X obj 559 316 print;
#X text 191 70 Write outside the abstraction in a message box, f 38;
#X text 56 24 Check Files inside a Folder in the patcher's folder and send out file's path, f 57;
#X text 233 90 [symbol FolderName] inside the patcher's path, f 37;
#X text 391 377 connect to [sprintf read -resize %s ArrayName] for example, f 47;
#X text 516 340 |, f 4;
#X text 391 360 output the file path \, outside the patcher, f 33;
#X text 394 391 to load an audio sample into an array, f 30;
#X text 29 360 output the total number of items in the folder, f 36;
#X text 45 340 |, f 4;
#X text 56 42 !!!!! file path and file name must not have space in the names, f 48;
#X text 547 69 navigate files with a number box, f 27;
#X text 454 25 !!!!! Copy and paste this abstraction and load in your main patch folder, f 55;
#X text 454 44 !!!!! because this patch search files in this patcher location and not the parent one, f 64;
#X connect 1 0 12 0;
#X connect 4 0 3 1;
#X connect 5 0 16 1;
#X connect 6 0 2 0;
#X connect 7 0 21 0;
#X connect 8 0 7 0;
#X connect 8 1 1 0;
#X connect 8 2 6 0;
#X connect 9 0 16 0;
#X connect 10 0 9 0;
#X connect 12 0 13 0;
#X connect 13 0 14 0;
#X connect 14 0 3 0;
#X connect 14 0 11 0;
#X connect 15 0 10 0;
#X connect 15 1 5 0;
#X connect 16 0 20 0;
#X connect 16 0 22 0;
#X connect 17 0 8 0;
#X connect 18 0 17 0;
#X connect 19 0 15 0;
